<svg id="Layer_1" data-name="Layer 1" xmlns="http://www.w3.org/2000/svg" viewBox="0 0 282.17 46.37"><defs><style>.cls-1{fill:#231f20;}</style></defs><title>logo-min</title><path class="cls-1" d="M0,3.88A1.17,1.17,0,0,1,1.17,2.71H25.73A1.17,1.17,0,0,1,26.9,3.88h0V7.32a1.16,1.16,0,0,1-1.15,1.17H6.33V22.67H22.72a1.21,1.21,0,0,1,1.17,1.17v3.38a1.21,1.21,0,0,1-1.17,1.17H6.33V44.53A1.21,1.21,0,0,1,5.16,45.7h-4A1.18,1.18,0,0,1,0,44.53Z" transform="translate(0 0)"/><path class="cls-1" d="M27.6,44.1,46.45,2.77a1.44,1.44,0,0,1,1-.67h.61a1.44,1.44,0,0,1,1,.67L67.87,44.1a1.08,1.08,0,0,1-.42,1.47,1.17,1.17,0,0,1-.58.13H63a1.43,1.43,0,0,1-1.41-.92l-3.81-8.42H37.67c-1.23,2.83-2.52,5.59-3.75,8.42a1.54,1.54,0,0,1-1.41.92H28.64a1.08,1.08,0,0,1-1.17-1A1.11,1.11,0,0,1,27.6,44.1Zm27.81-13L47.86,14.26h-.31L40.06,31.08Z" transform="translate(0 0)"/><path class="cls-1" d="M74,3.88a1.17,1.17,0,0,1,1.17-1.17h16.7A13.27,13.27,0,0,1,105.3,15.8v.06c0,5.65-3.75,10.31-9.09,12.46l8.41,15.6a1.16,1.16,0,0,1-.36,1.6,1.19,1.19,0,0,1-.64.18H98.79a1.13,1.13,0,0,1-1-.55L89.64,28.87H80.37V44.53A1.21,1.21,0,0,1,79.2,45.7h-4A1.17,1.17,0,0,1,74,44.56V3.88ZM91.42,23.59A7.64,7.64,0,0,0,98.91,16a7.53,7.53,0,0,0-7.49-7.31H80.49v14.9Z" transform="translate(0 0)"/><path class="cls-1" d="M154.63,38.57h.92a7.44,7.44,0,0,1-7.12,7.62s-6,.61-8.47-3l-3.44-5.09c-2.4,7.06-14.92,12.21-21.12,3.74s2-15.17,6.81-18l.55.86c-3.44,2.51-5.89,8.59-1,14.55a8.44,8.44,0,0,0,11.91.93,8.27,8.27,0,0,0,2.21-2.93L122,17.08c-5.71-8-1.9-15.66,5-16.88,4.17-.67,7.06.43,8.9,2.58l-.86.68a6.2,6.2,0,0,0-6.51-1.85c-3.19,1.17-4.73,6.15-1.78,10.5L144.8,38.69a6.48,6.48,0,0,0,5,2.77C152,41.46,154.14,40.78,154.63,38.57Zm-13.26-9.45a7.88,7.88,0,0,0-.55-.74,9.14,9.14,0,0,1,5.59-4.11,5,5,0,0,1,4.18.67,3.45,3.45,0,0,1,.47,4.87l-.11.13a3.58,3.58,0,0,1-5,.37A3.28,3.28,0,0,1,144.68,28c0-1-1.68-.73-3.31,1.12Z" transform="translate(0 0)"/><path class="cls-1" d="M183.59,2.1a22.1,22.1,0,1,1-22,22.2v0a22.06,22.06,0,0,1,22-22.16Zm0,38.06a16,16,0,1,0-15.9-16.1v.2a16,16,0,0,0,15.9,15.91Z" transform="translate(0 0)"/><path class="cls-1" d="M214,3.88a1.21,1.21,0,0,1,1.17-1.17h4.11a1.17,1.17,0,0,1,1.17,1.17V29.24c0,6.13,3.93,10.93,10.19,10.93S241,35.44,241,29.36V3.88a1.17,1.17,0,0,1,1.17-1.17h4.11a1.21,1.21,0,0,1,1.17,1.17V29.67a16.7,16.7,0,1,1-33.4,0Z" transform="translate(0 0)"/><path class="cls-1" d="M264.65,8.48h-10a1.16,1.16,0,0,1-1.17-1.15V3.88a1.17,1.17,0,0,1,1.17-1.17H281a1.17,1.17,0,0,1,1.17,1.17h0V7.32A1.16,1.16,0,0,1,281,8.48H271v36a1.21,1.21,0,0,1-1.17,1.17h-4.05a1.21,1.21,0,0,1-1.17-1.17Z" transform="translate(0 0)"/></svg>